<?xml version="1.0" standalone="no"?>
<!DOCTYPE svg PUBLIC "-//W3C//DTD SVG 20010904//EN"
 "http://www.w3.org/TR/2001/REC-SVG-20010904/DTD/svg10.dtd">
<svg version="1.0" xmlns="http://www.w3.org/2000/svg"
 width="500.000000pt" height="500.000000pt" viewBox="0 0 500.000000 500.000000"
 preserveAspectRatio="xMidYMid meet">
<metadata>
Created by potrace 1.14, written by Peter Selinger 2001-2017
</metadata>
<g transform="translate(0.000000,500.000000) scale(0.100000,-0.100000)"
fill="#000000" stroke="none">
<path d="M2245 4953 c-397 -49 -729 -163 -1045 -359 -641 -396 -1067 -1075
-1150 -1831 -16 -143 -8 -501 14 -638 127 -795 621 -1468 1344 -1830 693 -346
1533 -339 2219 20 233 121 397 240 587 425 592 576 853 1393 705 2210 -122
682 -543 1292 -1140 1656 -301 184 -647 301 -1009 344 -79 9 -458 12 -525 3z
m1998 -1563 c17 -67 2 -97 -71 -144 -37 -24 -94 -52 -126 -62 -75 -24 -91 -46
-121 -167 -13 -53 -30 -109 -38 -124 -38 -74 -91 -301 -138 -588 -13 -80 -56
-157 -113 -200 -45 -34 -66 -29 -90 20 -51 106 -17 440 70 697 36 106 53 231
36 257 -11 15 -77 30 -140 31 -24 0 -52 4 -62 10 -16 9 -19 3 -30 -58 -16 -86
-46 -148 -85 -172 -27 -17 -44 -18 -161 -13 -106 5 -145 3 -203 -12 -83 -20
-135 -51 -139 -84 -5 -35 68 -97 189 -161 120 -62 188 -121 224 -193 47 -95
23 -206 -62 -289 -49 -47 -115 -88 -143 -88 -8 0 -42 -11 -75 -25 -97 -40
-202 -29 -257 25 -52 53 -35 131 57 267 63 91 115 118 115 59 0 -13 -11 -43
-24 -67 -29 -52 -40 -101 -31 -130 6 -19 13 -21 50 -17 54 7 185 72 238 119
34 30 39 39 33 62 -13 54 -62 92 -228 178 -277 142 -326 223 -236 392 63 117
215 226 375 268 84 22 295 29 342 12 19 -8 34 -4 65 13 90 50 296 117 491 160
110 24 214 48 230 53 42 12 48 9 58 -29z m-1791 -262 c91 -76 142 -232 120
-364 -6 -38 -14 -125 -17 -194 -11 -234 -55 -371 -161 -501 -42 -51 -71 -75
-125 -104 -67 -35 -74 -37 -135 -30 -118 12 -231 113 -270 241 -8 27 -18 96
-21 155 -5 96 -3 116 26 230 18 68 48 171 68 229 61 182 101 250 146 250 12 0
45 20 72 44 57 49 98 72 152 85 56 13 92 3 145 -41z m-716 -119 c22 -17 42
-38 45 -48 4 -9 -2 -43 -13 -76 -12 -38 -22 -113 -28 -205 -5 -80 -16 -190
-25 -245 -8 -55 -17 -171 -21 -258 -5 -139 -8 -162 -27 -192 -25 -39 -66 -52
-110 -36 l-28 11 6 93 c7 112 24 228 35 242 15 19 34 209 21 200 -6 -3 -11 20
-13 57 l-3 63 -49 -80 c-27 -44 -56 -88 -64 -97 -8 -10 -50 -91 -94 -180 -76
-156 -119 -228 -138 -228 -5 0 -22 -13 -38 -29 -36 -37 -94 -53 -146 -41 -59
13 -61 21 -25 91 26 51 37 94 56 214 13 83 26 166 29 185 l5 35 -18 -23 c-22
-28 -74 -129 -148 -292 -72 -156 -111 -262 -120 -321 -10 -69 -17 -75 -57 -57
-18 9 -42 18 -53 20 -14 2 -20 11 -18 28 3 46 35 224 58 325 13 55 33 172 45
260 25 180 57 342 70 350 13 8 49 -16 52 -35 2 -8 -1 -49 -6 -92 -5 -42 -6
-84 -2 -94 6 -15 9 -15 32 7 13 12 58 78 100 145 41 68 88 134 105 148 27 23
38 25 102 23 l72 -2 0 -50 c0 -27 -7 -81 -16 -120 -44 -194 -42 -193 147 110
37 61 94 136 125 168 69 68 96 73 155 26z m-26 -1339 c0 -47 -4 -80 -10 -80
-6 0 -10 33 -10 80 0 47 4 80 10 80 6 0 10 -33 10 -80z m211 18 l44 -63 3 63
c4 90 22 76 22 -18 0 -57 -4 -80 -12 -80 -7 0 -33 29 -58 63 l-45 62 -3 -63
c-4 -90 -22 -76 -22 18 0 100 10 102 71 18z m230 35 c5 -16 18 -46 27 -68 l18
-39 23 62 c22 58 36 80 46 70 8 -8 -59 -158 -71 -158 -10 0 -26 33 -71 148 -3
6 0 12 6 12 7 0 16 -12 22 -27z m364 17 c4 -6 -13 -10 -44 -10 -48 0 -51 -2
-51 -25 0 -22 4 -25 39 -25 22 0 43 -4 46 -10 4 -6 -12 -10 -39 -10 -42 0 -46
-2 -46 -25 0 -23 3 -25 50 -25 28 0 50 -4 50 -10 0 -6 -27 -10 -60 -10 l-60 0
0 80 0 80 54 0 c30 0 58 -4 61 -10z m236 -9 c13 -11 21 -23 17 -27 -5 -4 -16
0 -26 9 -23 21 -56 22 -72 2 -10 -12 -7 -16 16 -26 62 -23 79 -35 82 -55 2
-12 -4 -26 -12 -33 -21 -17 -97 -10 -110 11 -14 23 1 36 17 14 9 -12 23 -17
47 -14 50 4 45 29 -9 48 -57 20 -72 42 -47 69 24 26 67 27 97 2z m269 9 c0 -5
-11 -10 -25 -10 -24 0 -25 -2 -25 -70 0 -40 -4 -70 -10 -70 -6 0 -10 30 -10
70 l0 70 -30 0 c-16 0 -30 5 -30 10 0 6 28 10 65 10 37 0 65 -4 65 -10z"/>
<path d="M2327 2924 c-37 -20 -93 -136 -142 -293 -44 -139 -51 -146 -128 -128
-26 6 -49 8 -52 5 -3 -3 -8 -37 -11 -74 -5 -61 -1 -84 35 -197 47 -148 54
-164 80 -172 66 -21 207 152 266 325 38 112 55 227 55 376 0 131 0 133 -26
153 -31 25 -40 25 -77 5z"/>
<path d="M1430 2720 c-6 -11 -8 -20 -6 -20 3 0 10 9 16 20 6 11 8 20 6 20 -3
0 -10 -9 -16 -20z"/>
</g>
</svg>
