<svg xmlns="http://www.w3.org/2000/svg" width="375" viewBox="0 0 281.25 150" height="200" version="1.0">
  <defs>
    <clipPath id="a">
      <path d="M2 42h276v75H2Zm0 0" />
    </clipPath>
    <clipPath id="b">
      <path d="m2.71 69.906 270.114-27.699 4.774 46.531-270.118 27.7Zm0 0" />
    </clipPath>
    <clipPath id="c">
      <path d="m-8.773-42.082 270.117-27.7 27.699 270.114-270.117 27.703Zm0 0" />
    </clipPath>
  </defs>
  <g clip-path="url(#a)">
    <g clip-path="url(#b)">
      <g clip-path="url(#c)">
        <path fill="#3d67ff" d="m-8.773-42.082 270.117-27.7 27.699 270.114-270.117 27.703Zm0 0" />
      </g>
    </g>
  </g>
  <path d="M40.99 62.056c-1.23 2.332-10.074 18.793-8.667 5.054.48-2.5.835-4.988.953-7.449-.196-.715-.153-1.453-.563-1.902-.668-.543-1.566-.942-2.234-1.485-.633-.18-1.082.235-1.356 1.118a23.763 23.763 0 0 0-.699 2.769c-.383 1.02-.406 2-.684 2.887-.792 3.02-1.476 5.906-1.308 8.707.086.847-.192 1.734-.238 2.472-.707 3.872-1.168 7.715-1.754 11.575l-.856 5.965c-.3 1.867-2.597 9.332-2.773 11.187-.446 1.637-.285 3.21-.496 4.703-.563 4.102-1.133 8.078-3.012 12.438-.098.254-.156.87-.023.98.765.29 1.433.832 2.414.856 1.601.082 2.84.199 3.593 1.59.133.109.254.097.63.183.655.422 1.25.238 1.866-.93a9.665 9.665 0 0 0 .575-2.75c.535-9.12 8.843-22.465 11.863-31.226 1.512-1.992 2.5-4.301 3.512-6.364 8.347-16.535 2.586 1.329 1.3 15.055.415 1.672-.27 3.336-1.406 5.41-1.16 1.836-2.05 3.887-3.062 5.95-.7 1.543-.594 1.41.32 1.93 1.055.745 2.645.706 3.89.945 2.005.406 3.93.09 6.27-1.008 1.293-.5 2.457-1.11 3.012-2.883.133.11.254.098.266.219.519-.91 1.05-1.7 1.449-2.598l.242-.027c-.316.523-.145.996-.07 1.722 1.535-1.75 2.89-2.867 3.687-4.664 1.918-3.996 8.652-15.953 9.602-19.847.191-.512.382-1.02.941-1.567-.027-.242.18-.633.531-.789 1.477-1.133 2.02-1.8 2.465-3.437.082-.375.29-.766.25-1.13 0 0 .11-.132.352-.16.011.122.148.231.281.34 7.062-12.359 6.715-10.976 5.988-.125l.364-.035c.543-1.894 1.082-3.785 1.746-5.691l.132.11.063.605c-.715 1.422-1.063 2.804-.684 4.113-.093.254.075.727-.25 1.125-.843 1.312.371 2.414-.718 3.75-.11.133-.082.375.05.484.454 2.036-.402 4.45-.543 6.672-.02.98-.296 1.867-.453 2.739-.12.011-.12.011-.46.292-.06-.605.12-1.238.07-1.722-.555 1.773-.743 3.508-1.078 5.012-.145.992-.262 2.23-.528 3.238-.183 4.183-.27 8.113-1.035 12.597-.562 1.653.07 3.06 1.684 3.258.496.075.87.157 1.02.387.425.57 1.03.508 1.866.297.715-.195 1.067-.352 1.43-.39 1.563-.282 1.672-.415 2.227-2.188.433-.535 1.004-.961 1.195-1.469.762-.937 1.148-1.957 1.086-2.562-.73-1.149-.13-2.438-.348-3.395-.527-1.54.754-3.383.024-4.535-.133-.106-.024-.242-.16-.352.832-2.656.835-4.984 1.195-7.468.129-1.118.164-1.977-.684-1.891-.77-1.516 1.145-3.18 1.332-4.914-.457.293-.445.414-.566.426l.535-3.118c-.035-.363.059-.617.047-.738.93-1.687.926-2.914.426-4.21-.278-.337-.086-.848-.004-1.223.277-.887 1.402-1.86.48-2.5-.144-.23-.039-.364-.05-.485 1.171-1.71 1.011-3.289 1.093-4.89.176-1.856.11-3.684.192-5.286-.04-1.586.015-3.43.082-5.152.152-3.324 1.39-6.758 2.605-10.434-.023-.242.18-.632.266-1.007-.16-1.575-.336-3.274-2.07-3.461-.122.011-.255-.098-.508-.196-.586-.918-1.403-1.691-2.325-2.332-.922-.64-2.183-1-3.41-1-1.234-.117-2.312 1.34-3.558 2.328-3.375 2.918-6.313 6.524-8.727 10.45-1.434 2.718-3.273 5.11-4.723 7.71-.976 1.2-1.714 2.38-2.062 3.762-4.188 6.922-9.504 14.817-5.192-.449.375-1.14.372-2.363.84-3.758.926-2.914.45-.414.285-3.215-.027-.242-.171-.472.06-.617.612-1.168.538-1.894.331-2.73-.144-.23.008-1.102-.039-1.586-.453-.813-1.445-.957-2.875-.563-1.418.512-2.426.246-3.566-.125-.645-.304-1.77-.554-2.473-.238-2.352.977-4.516 2.547-5.953 5.266l-1.57 2.61c-.93 1.687-2.235 3.292-3.165 4.98Zm24.184 2.91c.555-1.774 3.969-7.88 5.3-9.242-1.245 2.21-1.624 4.453-3.257 6.46-.219.266-.422.657-.387 1.02-.18.629-.722 1.297-1.656 1.762ZM55.87 81.72c.903-3.157 4.172-9.493 5.829-11.254.062.605-.227 1.37-.543 1.894-1.668 1.64-2.465 3.438-3.016 5.207-.496 1.153-.988 2.305-1.508 3.219a2.886 2.886 0 0 1-.762.934Zm-13.664 24.43c.098-.255.07-.497.035-.864.11-.133.446-.41.641-.922l.063.606-.496 1.152ZM95.844 89.38c.16.352.075.727.235 1.078.433 4.242 1.476 8.422 3.547 11.883 2.398 4.29 5.644 7.262 10.039 9.508 1.687.926 3.699 1.457 5.773 1.367.848-.09 1.723.066 2.582.102 1.129.25 2.34.129 3.598-.739.703-.316 1.418-.511 2.11-.949 3.077-1.05 5.57-3.02 7.417-5.293 2.078-2.418 3.688-4.664 5.535-6.937.301-.645.953-1.446 1.016-2.063 1.203-2.574 2.785-5.062 3.117-7.793.52-2.133 1.41-4.187 1.563-6.285.523-3.238 1.402-6.633 1.308-9.934-.152-2.675.531-5.566.61-8.39-.137-1.332-.153-2.68-.29-4.012.204-.387.008-1.101.215-1.492.868-2.293 1.32-5.035 1.301-7.606-.215-3.285-.672-6.543-1.937-9.355-1.16-2.941-2.309-5.766-4.227-7.773-1.64-1.668-3.246-2.973-4.984-4.387-1.067-.871-2.692-1.196-4.524-1.13-3.988.532-8.156 1.696-11.508 4.856-1.218 1.227-2.343 2.2-3.578 3.305-.3.645-.87 1.07-1.758.793-1.464.027-2.906.3-4.105 1.77-1.496 2.113-2.863 4.335-3.61 6.617l-2.312 6.117c-.625 1.043-1.07 2.68-1.43 3.941l-4.543 16.637c-1.39 5.531-2.19 10.879-1.16 16.164Zm10.063-15.363c2.472.234 4.426.16 6.222.953.778.41 1.72.07 2.692-.031.605-.063 1.297-.5 1.219-1.227.808-2.898 1.879-5.582 2.793-8.617-.04-.363.058-.617.398-.895.566-1.652 1.023-3.168 1.344-4.793.433-1.761 1.398-3.085 2.097-4.625 1.125-2.199 2.004-4.37 3.125-6.566.41-.777.97-1.324 1.438-1.496.789-.695 1.625-.902 2.312-1.34 1.649-.66 3.032-.312 4.114.68 1.468 1.199 2.105 2.601 2.183 4.554.227 4.63.145 9.786-.12 14.344-.602 7.29-2.196 14.434-4.946 21.082-2.445 6.008-6.203 11.172-10.387 15.766-1.207 1.348-2.844 2.129-4.344 3.016-.68.562-1.671.417-2.449.007-1.941-1.027-2.722-2.66-3.308-4.804-.809-3.102-1.86-6.18-3.059-9.485-.316-1.93-1.11-3.683-1.687-5.707-.137-1.336.105-2.582.078-4.05-.016-1.344-.059-2.934.265-4.56-.062-.605-.136-1.331.02-2.206ZM168.728 63.165c-4.687-2.703-10.426-8.485-1.922-11.563l4.035-1.27c1.176-.487 2.496-.745 3.696-.991 4.23-.555 8.172-.348 12.097-.262 1.965.043 3.942.21 5.836.75.524.312 1.25.238 1.938-.2 1.297-.5 2.328-1.218 3.597-1.96a5.005 5.005 0 0 0 1.743-2.137c.394-.898 1.047-1.703 1.433-2.723.508-1.03.989-2.304 1.024-3.164-.09-2.074.425-4.21 1.183-6.37.18-.63.117-1.235.176-1.856-.023-.242-.059-.606.035-.86.266-1.007-.148-1.453-.804-1.879-1.7-1.046-3.81-1.324-6.016-1.34l-6.149-.226c-6.714.195-13.601 1.149-20.722 4.574-1.27.742-2.688 1.254-4.078 2.008-4.578 3.164-9.004 6.559-12.075 11.285-3.394 5.125-5.293 11.688-2.03 16.008 1.737 2.64 3.952 5.106 6.831 6.895 2.5 1.703 5.098 3.152 7.926 4.453 4.625 2.097 9.262 4.316 13.332 6.96 2.488 1.583 3.828 3.895 4.965 6.598.437.688.172 1.696-.832 2.657-1.317 1.48-2.914 2.625-4.418 3.515-2.067 1.313-4.285 2.399-6.367 3.594-2.082 1.191-4.336 1.914-6.48 2.5-1.188.367-2.41.371-3.419.105-.875-.156-1.3-.722-1.265-1.586-.004-1.222-.102-2.19.027-3.308.059-1.844.758-3.387 1.809-5.086l1.87-3.254c.313-.52.395-.898.239-1.25-.184-.594-.234-1.078-.297-1.684-.242.024-.617-.058-1.234-.117l1.488-1.011c-1.008-.262-1.379.878-2.082 1.195-1.844-.059-2.293.355-3.074 2.273-.207.39-.399.899-.739 1.18-1.765 1.895-3.14 3.996-4.277 6.07-1.363 2.223-2.242 4.395-2.879 6.543-.742 3.508.004 6.004 2.02 7.754 2.285 1.973 5.535 2.617 8.855 2.77 2.223.136 4.39-.207 6.875-1.075 1.051-.476 1.875-.804 2.797-1.39 1.027-.715 1.984-.938 3.074-1.047 1.348-.016 2.79-.29 4.047-1.152 2.676-1.375 5.074-3.09 7.153-5.508.558-.55 1.09-1.34 1.402-1.86.86-1.19 1.45-2.597 1.93-3.875 1.687-3.847 1.812-7.41.761-10.488-1.683-4.48-4.37-8.004-7.941-10.578-2.504-1.703-4.883-3.418-7.82-4.586-.38-.082-.766-.289-1.153-.496-1.969-1.266-4.058-2.523-6.12-3.535Zm0 0" fill="#fff" />
  <path d="M201.366 30.297c1.383.348 2.403.735 2.77 1.922.305.582 1.066.871 1.7 1.051.87.156 1.964.043 2.944.066 1.348-.015 2.813-.043 4.086.438.391.203.996.144 1.493.215 10.898-1.242.746 21.601-.274 25.996-1.906 7.668-3.2 15.39-4.016 22.949-.246 3.574-.382 7.02-.386 10.574.07 3.055 1.203 5.754 2.328 8.332.3.582.851 1.14 1.383 1.574.804.653 2.097.153 2.968-.917l1.586-1.262c1.38-.88 2.493-1.973 3.313-3.528.41-.777.941-1.566 1.488-2.234.856-1.191 1.352-2.344 1.469-3.578.203-1.613.644-3.254 1.09-4.89.277-.887.543-1.891.453-2.743-.137-1.332-.031-2.691.183-4.183l.672-3.008 1.235-5.883c.07-.496.265-1.008.324-1.625.285-1.988.437-4.086 1.074-6.234 1.434-3.946 2.504-7.852 3.57-11.758.254-1.13.762-2.16 1.145-3.18 3.988-5.309 2.148-18.473 9.992-19.64 1.778-.551 3.477-.727 5.219-1.641 1.504-.887 3.016-1.656 4.394-2.531l3.536-2.567c.812-.453 1.222-1.23 1.39-1.98.344-2.61.336-5.059-.504-7.297-.16-.352-.316-.703-.597-1.043-1.246.984-2.325 1.219-3.524 1.465-5.164 1.02-10.324 2.039-15.476 3.18l-11.23 2.742c-2.63.636-5.368 1.41-7.95 2.53-2.348.977-4.578 1.938-6.832 2.661a54.865 54.865 0 0 0-6.914 3.035c-1.39.758-2.652 1.621-4.102 2.992ZM86.353 136.68H85.15v-10.609h1.203ZM105.614 126.071v10.61h-1.39l-6.548-8.954v8.954h-1.203v-10.61h1.39l6.548 8.922v-8.922ZM124.454 126.071l-4.296 10.61h-1.375l-4.297-10.61h1.312l3.672 9.25 3.672-9.25ZM134.52 127.227v3.563h5.891v1.172h-5.89v3.562h6.593v1.157h-7.796v-10.61h7.796v1.156ZM151.782 127.712c-.199.168-.336.36-.406.578-.062.21-.094.437-.094.687 0 .243.102.461.313.657.207.199.484.37.828.515a9.9 9.9 0 0 0 1.172.375c.437.106.879.215 1.328.328.457.106.906.23 1.344.375.437.149.828.329 1.172.547.75.48 1.125 1.137 1.125 1.969 0 1-.372 1.762-1.11 2.281-.742.524-1.765.782-3.078.782-1.492 0-2.621-.305-3.39-.922-.7-.563-1.094-1.352-1.188-2.375h1.25c.039.73.39 1.289 1.047 1.672.582.324 1.347.484 2.297.484 1.988 0 2.984-.617 2.984-1.86 0-.425-.184-.765-.547-1.015-.355-.25-.804-.453-1.344-.61-.543-.156-1.125-.3-1.75-.437a11.626 11.626 0 0 1-1.75-.547 4.158 4.158 0 0 1-1.343-.86c-.356-.363-.532-.847-.532-1.452 0-.864.329-1.567.985-2.11.664-.55 1.672-.828 3.015-.828 1.344 0 2.38.313 3.11.938.676.543 1.035 1.242 1.078 2.093h-1.234c-.106-.875-.672-1.457-1.704-1.75-.355-.101-.804-.156-1.343-.156-.543 0-1 .063-1.375.188-.367.125-.653.277-.86.453ZM175.484 127.227h-3.703v9.454h-1.203v-9.454h-3.703v-1.156h8.61Zm0 0" fill="#fff" />
</svg>